<?xml version="1.0" encoding="utf-8"?>
<!-- Generator: Adobe Illustrator 16.0.0, SVG Export Plug-In . SVG Version: 6.00 Build 0)  -->
<!DOCTYPE svg PUBLIC "-//W3C//DTD SVG 1.1//EN" "http://www.w3.org/Graphics/SVG/1.1/DTD/svg11.dtd">
<svg version="1.1" id="Layer_1" xmlns="http://www.w3.org/2000/svg" xmlns:xlink="http://www.w3.org/1999/xlink" x="0px" y="0px"
	 width="100px" height="100px" viewBox="0 0 100 100" enable-background="new 0 0 100 100" xml:space="preserve">
<path fill="#0EA5C6" d="M49.859,93.5l-0.039-0.016c-0.038-13-18.875-28.297-23.198-32.955s-7.756-12.618-7.756-20.494
	C18.866,22.866,32.784,9,49.953,9h-0.086c17.169,0,31.087,13.866,31.087,31.036c0,7.876-3.433,15.861-7.756,20.519
	S50.038,80.497,50,93.497l-0.039,0.01L49.859,93.5z"/>
<g>
	<path fill="#FFFFFF" d="M49.48,40.951c0,4.25-0.671,7.423-2.011,9.52s-3.389,3.145-6.147,3.145c-2.646,0-4.659-1.073-6.038-3.221
		c-1.379-2.147-2.069-5.295-2.069-9.444c0-4.283,0.667-7.462,2.002-9.537c1.334-2.074,3.369-3.111,6.105-3.111
		c2.668,0,4.695,1.082,6.08,3.246S49.48,36.847,49.48,40.951z M36.041,40.951c0,3.577,0.421,6.181,1.262,7.813
		s2.181,2.448,4.02,2.448c1.861,0,3.21-0.827,4.045-2.481c0.835-1.654,1.253-4.247,1.253-7.779c0-3.532-0.418-6.119-1.253-7.762
		c-0.835-1.643-2.184-2.464-4.045-2.464c-1.839,0-3.179,0.811-4.02,2.431S36.041,37.374,36.041,40.951z"/>
	<path fill="#FFFFFF" d="M63.221,53.279h-2.725V35.754c0-1.458,0.045-2.837,0.135-4.138c-0.235,0.235-0.499,0.482-0.79,0.74
		c-0.292,0.258-1.626,1.352-4.003,3.28l-1.48-1.917l6.509-5.029h2.354V53.279z"/>
</g>
<g>
	<g>
		<path fill="none" stroke="#FFFFFF" stroke-miterlimit="10" d="M50.084,83.531c-0.062,0.501-0.095,1-0.097,1.495l-0.034-0.099
			l-0.088-0.114L49.833,84.8c-0.001-0.494-0.034-0.993-0.096-1.494"/>
		<path fill="none" stroke="#FFFFFF" stroke-miterlimit="10" stroke-dasharray="2.9927,2.9927" d="M49.075,80.39
			C45.819,70.313,33.036,59.822,29.78,56.313c-3.737-4.027-6.704-10.043-6.704-16.851c0-13.828,10.444-24.427,23.875-25.809"/>
		<path fill="none" stroke="#FFFFFF" stroke-miterlimit="10" d="M48.447,13.538c0.497-0.025,0.997-0.038,1.5-0.038h-0.074
			c0.503,0,1.003,0.013,1.5,0.038"/>
		<path fill="none" stroke="#FFFFFF" stroke-miterlimit="10" stroke-dasharray="3.0003,3.0003" d="M54.359,13.846
			c12.706,1.985,22.385,12.304,22.385,25.617c0,6.808-2.966,13.279-6.703,17.305c-3.411,3.676-17.276,14.824-19.693,25.286"/>
	</g>
</g>
</svg>
