<?xml version="1.0" encoding="utf-8"?>
<!-- Generator: Adobe Illustrator 16.0.0, SVG Export Plug-In . SVG Version: 6.00 Build 0)  -->
<!DOCTYPE svg PUBLIC "-//W3C//DTD SVG 1.1//EN" "http://www.w3.org/Graphics/SVG/1.1/DTD/svg11.dtd">
<svg version="1.1" id="Layer_1" xmlns="http://www.w3.org/2000/svg" xmlns:xlink="http://www.w3.org/1999/xlink" x="0px" y="0px"
	 width="100px" height="100px" viewBox="0 0 100 100" enable-background="new 0 0 100 100" xml:space="preserve">
<path fill="#0EA5C6" d="M49.859,93.5l-0.039-0.016c-0.038-13-18.875-28.297-23.198-32.955s-7.756-12.618-7.756-20.494
	C18.866,22.866,32.784,9,49.953,9h-0.086c17.169,0,31.087,13.866,31.087,31.036c0,7.876-3.433,15.861-7.756,20.519
	S50.038,80.497,50,93.497l-0.039,0.01L49.859,93.5z"/>
<g>
	<g>
		<path fill="none" stroke="#FFFFFF" stroke-miterlimit="10" d="M50.084,83.531c-0.062,0.501-0.095,1-0.097,1.495l-0.034-0.099
			l-0.088-0.114L49.833,84.8c-0.001-0.494-0.034-0.993-0.096-1.494"/>
		<path fill="none" stroke="#FFFFFF" stroke-miterlimit="10" stroke-dasharray="2.9927,2.9927" d="M49.075,80.39
			C45.819,70.313,33.036,59.822,29.78,56.313c-3.737-4.027-6.704-10.043-6.704-16.851c0-13.828,10.444-24.427,23.875-25.809"/>
		<path fill="none" stroke="#FFFFFF" stroke-miterlimit="10" d="M48.447,13.538c0.497-0.025,0.997-0.038,1.5-0.038h-0.074
			c0.503,0,1.003,0.013,1.5,0.038"/>
		<path fill="none" stroke="#FFFFFF" stroke-miterlimit="10" stroke-dasharray="3.0003,3.0003" d="M54.359,13.846
			c12.706,1.985,22.385,12.304,22.385,25.617c0,6.808-2.966,13.279-6.703,17.305c-3.411,3.676-17.276,14.824-19.693,25.286"/>
	</g>
</g>
<g>
	<path fill="#FFFFFF" d="M48.475,41.312c0,4.195-0.662,7.327-1.984,9.396c-1.323,2.069-3.345,3.104-6.068,3.104
		c-2.612,0-4.599-1.06-5.96-3.179c-1.361-2.119-2.042-5.227-2.042-9.322c0-4.228,0.658-7.365,1.976-9.413
		c1.317-2.047,3.326-3.071,6.026-3.071c2.634,0,4.634,1.068,6.001,3.204C47.791,34.167,48.475,37.261,48.475,41.312z M35.21,41.312
		c0,3.531,0.415,6.101,1.245,7.711s2.152,2.416,3.968,2.416c1.837,0,3.168-0.816,3.993-2.449c0.824-1.632,1.237-4.192,1.237-7.678
		s-0.413-6.04-1.237-7.662c-0.825-1.621-2.156-2.432-3.993-2.432c-1.815,0-3.138,0.8-3.968,2.399
		C35.625,35.216,35.21,37.781,35.21,41.312z"/>
	<path fill="#FFFFFF" d="M66.869,34.92c0,1.55-0.435,2.817-1.303,3.802c-0.869,0.985-2.101,1.644-3.694,1.976v0.133
		c1.948,0.244,3.393,0.863,4.333,1.859s1.411,2.302,1.411,3.918c0,2.313-0.803,4.092-2.407,5.338
		c-1.604,1.244-3.885,1.867-6.84,1.867c-1.284,0-2.46-0.097-3.527-0.291c-1.068-0.193-2.106-0.533-3.113-1.021v-2.623
		c1.052,0.521,2.172,0.916,3.361,1.187c1.19,0.271,2.316,0.407,3.379,0.407c4.194,0,6.292-1.644,6.292-4.931
		c0-2.944-2.313-4.416-6.939-4.416h-2.391v-2.374h2.424c1.893,0,3.393-0.417,4.499-1.253c1.106-0.835,1.66-1.995,1.66-3.478
		c0-1.184-0.406-2.114-1.221-2.789c-0.813-0.675-1.917-1.013-3.312-1.013c-1.063,0-2.064,0.144-3.005,0.432
		c-0.94,0.288-2.015,0.819-3.221,1.594l-1.395-1.859c0.996-0.786,2.145-1.403,3.445-1.851c1.3-0.448,2.67-0.672,4.108-0.672
		c2.357,0,4.189,0.54,5.495,1.619S66.869,33.039,66.869,34.92z"/>
</g>
</svg>
