<?xml version="1.0" encoding="utf-8"?>
<!-- Generator: Adobe Illustrator 16.0.0, SVG Export Plug-In . SVG Version: 6.00 Build 0)  -->
<!DOCTYPE svg PUBLIC "-//W3C//DTD SVG 1.1//EN" "http://www.w3.org/Graphics/SVG/1.1/DTD/svg11.dtd">
<svg version="1.1" id="Layer_1" xmlns="http://www.w3.org/2000/svg" xmlns:xlink="http://www.w3.org/1999/xlink" x="0px" y="0px"
	 width="100px" height="100px" viewBox="0 0 100 100" enable-background="new 0 0 100 100" xml:space="preserve">
<path fill="#0EA5C6" d="M49.859,93.5l-0.039-0.016c-0.038-13-18.875-28.297-23.198-32.955s-7.756-12.618-7.756-20.494
	C18.866,22.866,32.784,9,49.953,9h-0.086c17.169,0,31.087,13.866,31.087,31.036c0,7.876-3.433,15.861-7.756,20.519
	S50.038,80.497,50,93.497l-0.039,0.01L49.859,93.5z"/>
<g>
	<g>
		<path fill="none" stroke="#FFFFFF" stroke-miterlimit="10" d="M50.084,83.531c-0.062,0.501-0.095,1-0.097,1.495l-0.034-0.099
			l-0.088-0.114L49.833,84.8c-0.001-0.494-0.034-0.993-0.096-1.494"/>
		<path fill="none" stroke="#FFFFFF" stroke-miterlimit="10" stroke-dasharray="2.9927,2.9927" d="M49.075,80.39
			C45.819,70.313,33.036,59.822,29.78,56.313c-3.737-4.027-6.704-10.043-6.704-16.851c0-13.828,10.444-24.427,23.875-25.809"/>
		<path fill="none" stroke="#FFFFFF" stroke-miterlimit="10" d="M48.447,13.538c0.497-0.025,0.997-0.038,1.5-0.038h-0.074
			c0.503,0,1.003,0.013,1.5,0.038"/>
		<path fill="none" stroke="#FFFFFF" stroke-miterlimit="10" stroke-dasharray="3.0003,3.0003" d="M54.359,13.846
			c12.706,1.985,22.385,12.304,22.385,25.617c0,6.808-2.966,13.279-6.703,17.305c-3.411,3.676-17.276,14.824-19.693,25.286"/>
	</g>
</g>
<g>
	<path fill="#FFFFFF" d="M48.475,41.312c0,4.195-0.662,7.327-1.984,9.396c-1.323,2.069-3.345,3.104-6.068,3.104
		c-2.612,0-4.599-1.06-5.96-3.179c-1.361-2.119-2.042-5.227-2.042-9.322c0-4.228,0.658-7.365,1.976-9.413
		c1.317-2.047,3.326-3.071,6.026-3.071c2.634,0,4.634,1.068,6.001,3.204C47.791,34.167,48.475,37.261,48.475,41.312z M35.21,41.312
		c0,3.531,0.415,6.101,1.245,7.711s2.152,2.416,3.968,2.416c1.837,0,3.168-0.816,3.993-2.449c0.824-1.632,1.237-4.192,1.237-7.678
		s-0.413-6.04-1.237-7.662c-0.825-1.621-2.156-2.432-3.993-2.432c-1.815,0-3.138,0.8-3.968,2.399
		C35.625,35.216,35.21,37.781,35.21,41.312z"/>
	<path fill="#FFFFFF" d="M52.11,43.104c0-4.77,0.927-8.336,2.78-10.7c1.854-2.363,4.597-3.544,8.227-3.544
		c1.251,0,2.235,0.105,2.955,0.315v2.374c-0.853-0.276-1.826-0.415-2.922-0.415c-2.601,0-4.588,0.811-5.96,2.432
		c-1.372,1.622-2.125,4.17-2.258,7.645h0.199c1.218-1.903,3.144-2.855,5.777-2.855c2.181,0,3.898,0.659,5.155,1.976
		c1.256,1.317,1.884,3.104,1.884,5.362c0,2.523-0.688,4.507-2.067,5.952c-1.377,1.443-3.239,2.166-5.586,2.166
		c-2.513,0-4.505-0.943-5.977-2.831C52.847,49.095,52.11,46.469,52.11,43.104z M60.262,51.472c1.571,0,2.792-0.495,3.66-1.486
		c0.869-0.99,1.304-2.421,1.304-4.292c0-1.604-0.404-2.866-1.212-3.785c-0.808-0.918-2.015-1.378-3.619-1.378
		c-0.996,0-1.909,0.205-2.739,0.614c-0.83,0.41-1.491,0.974-1.983,1.693c-0.493,0.72-0.739,1.467-0.739,2.241
		c0,1.14,0.222,2.203,0.664,3.188c0.442,0.985,1.071,1.766,1.884,2.341C58.295,51.184,59.222,51.472,60.262,51.472z"/>
</g>
</svg>
