<?xml version="1.0" encoding="utf-8"?>
<!-- Generator: Adobe Illustrator 16.0.0, SVG Export Plug-In . SVG Version: 6.00 Build 0)  -->
<!DOCTYPE svg PUBLIC "-//W3C//DTD SVG 1.1//EN" "http://www.w3.org/Graphics/SVG/1.1/DTD/svg11.dtd">
<svg version="1.1" id="Layer_1" xmlns="http://www.w3.org/2000/svg" xmlns:xlink="http://www.w3.org/1999/xlink" x="0px" y="0px"
	 width="180px" height="180px" viewBox="0 0 180 180" enable-background="new 0 0 180 180" xml:space="preserve">
<path fill="#FFFFFF" stroke="#CCCCCC" stroke-miterlimit="10" d="M69.413,176.409c1.739-0.435,40.207-16.517,40.207-16.517"/>
<path fill="#FFFFFF" stroke="#CCCCCC" stroke-miterlimit="10" d="M109.619,176.409c-1.738-0.435-40.207-16.517-40.207-16.517"/>
<path fill="#0EA5C6" d="M89.416,165.419l-0.074-0.03c-0.071-24.599-35.717-53.546-43.897-62.359
	c-8.181-8.815-14.677-23.878-14.677-38.782c0-32.488,26.337-58.728,58.827-58.728h-0.163c32.488,0,58.825,26.239,58.825,58.73
	c0,14.903-6.495,30.012-14.676,38.828c-8.18,8.813-43.826,37.737-43.898,62.336l-0.073,0.02L89.416,165.419z"/>
<g>
	<g>
		<path fill="none" stroke="#FFFFFF" stroke-miterlimit="10" d="M89.841,146.556c-0.117,0.947-0.18,1.892-0.184,2.827l-0.063-0.187
			l-0.167-0.217l-0.061-0.024c-0.002-0.933-0.064-1.878-0.182-2.825"/>
		<path fill="none" stroke="#FFFFFF" stroke-miterlimit="10" stroke-dasharray="2.9927,2.9927" d="M87.933,140.612
			C81.771,121.541,57.582,101.69,51.42,95.05c-7.071-7.62-12.686-19.004-12.686-31.887c0-26.167,19.763-46.223,45.179-48.839"/>
		<path fill="none" stroke="#FFFFFF" stroke-miterlimit="10" d="M86.743,14.107c0.941-0.047,1.887-0.072,2.839-0.072h-0.14
			c0.952,0,1.898,0.025,2.84,0.072"/>
		<path fill="none" stroke="#FFFFFF" stroke-miterlimit="10" stroke-dasharray="3.0003,3.0003" d="M97.933,14.69
			c24.041,3.755,42.358,23.282,42.358,48.474c0,12.883-5.614,25.128-12.686,32.747c-6.454,6.955-32.689,28.051-37.265,47.851"/>
	</g>
</g>
<g>
	<path fill="#FFFFFF" d="M86.797,66.664c0,7.938-1.252,13.866-3.753,17.78c-2.505,3.915-6.33,5.874-11.484,5.874
		c-4.942,0-8.702-2.007-11.278-6.017c-2.575-4.009-3.864-9.89-3.864-17.64c0-8,1.246-13.937,3.74-17.813
		c2.492-3.874,6.294-5.811,11.402-5.811c4.985,0,8.771,2.021,11.356,6.063C85.503,53.143,86.797,58.998,86.797,66.664z
		 M61.696,66.664c0,6.681,0.785,11.545,2.356,14.591c1.571,3.046,4.072,4.573,7.508,4.573c3.477,0,5.995-1.544,7.557-4.634
		c1.56-3.089,2.34-7.934,2.34-14.53s-0.781-11.43-2.34-14.499c-1.562-3.067-4.08-4.602-7.557-4.602c-3.434,0-5.937,1.514-7.508,4.54
		C62.481,55.127,61.696,59.982,61.696,66.664z"/>
	<path fill="#FFFFFF" d="M93.674,70.055c0-9.026,1.756-15.774,5.264-20.249c3.507-4.471,8.697-6.706,15.567-6.706
		c2.367,0,4.228,0.198,5.592,0.596v4.492c-1.616-0.521-3.456-0.785-5.529-0.785c-4.923,0-8.682,1.535-11.28,4.602
		c-2.595,3.07-4.021,7.891-4.272,14.467h0.377c2.308-3.601,5.95-5.403,10.933-5.403c4.127,0,7.377,1.247,9.753,3.739
		c2.377,2.492,3.567,5.874,3.567,10.146c0,4.774-1.303,8.529-3.913,11.264c-2.605,2.729-6.129,4.098-10.569,4.098
		c-4.755,0-8.524-1.785-11.312-5.359C95.072,81.392,93.674,76.422,93.674,70.055z M109.103,85.891c2.972,0,5.284-0.939,6.925-2.814
		c1.646-1.873,2.469-4.58,2.469-8.121c0-3.036-0.766-5.423-2.294-7.162c-1.529-1.738-3.813-2.607-6.85-2.607
		c-1.886,0-3.611,0.387-5.182,1.161c-1.57,0.776-2.822,1.844-3.753,3.203c-0.935,1.364-1.399,2.777-1.399,4.241
		c0,2.157,0.422,4.169,1.257,6.033c0.837,1.863,2.028,3.342,3.567,4.428C105.38,85.343,107.135,85.891,109.103,85.891z"/>
</g>
</svg>
