<?xml version="1.0" encoding="utf-8"?>
<!-- Generator: Adobe Illustrator 16.0.0, SVG Export Plug-In . SVG Version: 6.00 Build 0)  -->
<!DOCTYPE svg PUBLIC "-//W3C//DTD SVG 1.1//EN" "http://www.w3.org/Graphics/SVG/1.1/DTD/svg11.dtd">
<svg version="1.1" id="Layer_1" xmlns="http://www.w3.org/2000/svg" xmlns:xlink="http://www.w3.org/1999/xlink" x="0px" y="0px"
	 width="100px" height="100px" viewBox="0 0 100 100" enable-background="new 0 0 100 100" xml:space="preserve">
<path fill="#0EA5C6" d="M49.859,93.5l-0.039-0.016c-0.038-13-18.875-28.297-23.198-32.955s-7.756-12.618-7.756-20.494
	C18.866,22.866,32.784,9,49.953,9h-0.086c17.169,0,31.087,13.866,31.087,31.036c0,7.876-3.433,15.861-7.756,20.519
	S50.038,80.497,50,93.497l-0.039,0.01L49.859,93.5z"/>
<g>
	<g>
		<path fill="none" stroke="#FFFFFF" stroke-miterlimit="10" d="M50.084,83.531c-0.062,0.501-0.095,1-0.097,1.495l-0.034-0.099
			l-0.088-0.114L49.833,84.8c-0.001-0.494-0.034-0.993-0.096-1.494"/>
		<path fill="none" stroke="#FFFFFF" stroke-miterlimit="10" stroke-dasharray="2.9927,2.9927" d="M49.075,80.39
			C45.819,70.313,33.036,59.822,29.78,56.313c-3.737-4.027-6.704-10.043-6.704-16.851c0-13.828,10.444-24.427,23.875-25.809"/>
		<path fill="none" stroke="#FFFFFF" stroke-miterlimit="10" d="M48.447,13.538c0.497-0.025,0.997-0.038,1.5-0.038h-0.074
			c0.503,0,1.003,0.013,1.5,0.038"/>
		<path fill="none" stroke="#FFFFFF" stroke-miterlimit="10" stroke-dasharray="3.0003,3.0003" d="M54.359,13.846
			c12.706,1.985,22.385,12.304,22.385,25.617c0,6.808-2.966,13.279-6.703,17.305c-3.411,3.676-17.276,14.824-19.693,25.286"/>
	</g>
</g>
<g>
	<path fill="#FFFFFF" d="M48.475,41.312c0,4.195-0.662,7.327-1.984,9.396c-1.323,2.069-3.345,3.104-6.068,3.104
		c-2.612,0-4.599-1.06-5.96-3.179c-1.361-2.119-2.042-5.227-2.042-9.322c0-4.228,0.658-7.365,1.976-9.413
		c1.317-2.047,3.326-3.071,6.026-3.071c2.634,0,4.634,1.068,6.001,3.204C47.791,34.167,48.475,37.261,48.475,41.312z M35.21,41.312
		c0,3.531,0.415,6.101,1.245,7.711s2.152,2.416,3.968,2.416c1.837,0,3.168-0.816,3.993-2.449c0.824-1.632,1.237-4.192,1.237-7.678
		s-0.413-6.04-1.237-7.662c-0.825-1.621-2.156-2.432-3.993-2.432c-1.815,0-3.138,0.8-3.968,2.399
		C35.625,35.216,35.21,37.781,35.21,41.312z"/>
	<path fill="#FFFFFF" d="M59.863,28.86c2.214,0,3.968,0.515,5.263,1.544s1.942,2.452,1.942,4.267c0,1.195-0.371,2.286-1.112,3.271
		c-0.741,0.985-1.926,1.882-3.553,2.689c1.97,0.941,3.37,1.929,4.2,2.963c0.83,1.035,1.245,2.233,1.245,3.594
		c0,2.015-0.703,3.622-2.108,4.823c-1.405,1.2-3.331,1.801-5.777,1.801c-2.59,0-4.582-0.567-5.977-1.701
		c-1.395-1.135-2.092-2.742-2.092-4.823c0-2.778,1.693-4.941,5.08-6.491c-1.527-0.863-2.623-1.795-3.287-2.797
		c-0.664-1.001-0.996-2.122-0.996-3.362c0-1.76,0.65-3.163,1.951-4.208C55.942,29.383,57.683,28.86,59.863,28.86z M54.617,47.354
		c0,1.328,0.462,2.363,1.387,3.104c0.924,0.742,2.222,1.112,3.893,1.112c1.649,0,2.933-0.388,3.852-1.162s1.378-1.837,1.378-3.188
		c0-1.073-0.432-2.028-1.295-2.864c-0.863-0.835-2.368-1.646-4.516-2.432c-1.649,0.708-2.845,1.492-3.586,2.349
		C54.988,45.133,54.617,46.159,54.617,47.354z M59.83,31.102c-1.384,0-2.468,0.332-3.254,0.996s-1.179,1.55-1.179,2.656
		c0,1.019,0.326,1.893,0.979,2.623s1.859,1.461,3.619,2.191c1.583-0.664,2.703-1.378,3.361-2.142
		c0.659-0.764,0.988-1.654,0.988-2.673c0-1.118-0.401-2.006-1.203-2.665C62.34,31.431,61.235,31.102,59.83,31.102z"/>
</g>
</svg>
