<?xml version="1.0" encoding="utf-8"?>
<!-- Generator: Adobe Illustrator 16.0.0, SVG Export Plug-In . SVG Version: 6.00 Build 0)  -->
<!DOCTYPE svg PUBLIC "-//W3C//DTD SVG 1.1//EN" "http://www.w3.org/Graphics/SVG/1.1/DTD/svg11.dtd">
<svg version="1.1" id="Layer_1" xmlns="http://www.w3.org/2000/svg" xmlns:xlink="http://www.w3.org/1999/xlink" x="0px" y="0px"
	 width="100px" height="100px" viewBox="0 0 100 100" enable-background="new 0 0 100 100" xml:space="preserve">
<path fill="#0EA5C6" d="M49.859,93.5l-0.039-0.016c-0.038-13-18.875-28.297-23.198-32.955s-7.756-12.618-7.756-20.494
	C18.866,22.866,32.784,9,49.953,9h-0.086c17.169,0,31.087,13.866,31.087,31.036c0,7.876-3.433,15.861-7.756,20.519
	S50.038,80.497,50,93.497l-0.039,0.01L49.859,93.5z"/>
<g>
	<g>
		<path fill="none" stroke="#FFFFFF" stroke-miterlimit="10" d="M50.084,83.531c-0.062,0.501-0.095,1-0.097,1.495l-0.034-0.099
			l-0.088-0.114L49.833,84.8c-0.001-0.494-0.034-0.993-0.096-1.494"/>
		<path fill="none" stroke="#FFFFFF" stroke-miterlimit="10" stroke-dasharray="2.9927,2.9927" d="M49.075,80.39
			C45.819,70.313,33.036,59.822,29.78,56.313c-3.737-4.027-6.704-10.043-6.704-16.851c0-13.828,10.444-24.427,23.875-25.809"/>
		<path fill="none" stroke="#FFFFFF" stroke-miterlimit="10" d="M48.447,13.538c0.497-0.025,0.997-0.038,1.5-0.038h-0.074
			c0.503,0,1.003,0.013,1.5,0.038"/>
		<path fill="none" stroke="#FFFFFF" stroke-miterlimit="10" stroke-dasharray="3.0003,3.0003" d="M54.359,13.846
			c12.706,1.985,22.385,12.304,22.385,25.617c0,6.808-2.966,13.279-6.703,17.305c-3.411,3.676-17.276,14.824-19.693,25.286"/>
	</g>
</g>
<g>
	<path fill="#FFFFFF" d="M48.475,41.312c0,4.195-0.662,7.327-1.984,9.396c-1.323,2.069-3.345,3.104-6.068,3.104
		c-2.612,0-4.599-1.06-5.96-3.179c-1.361-2.119-2.042-5.227-2.042-9.322c0-4.228,0.658-7.365,1.976-9.413
		c1.317-2.047,3.326-3.071,6.026-3.071c2.634,0,4.634,1.068,6.001,3.204C47.791,34.167,48.475,37.261,48.475,41.312z M35.21,41.312
		c0,3.531,0.415,6.101,1.245,7.711s2.152,2.416,3.968,2.416c1.837,0,3.168-0.816,3.993-2.449c0.824-1.632,1.237-4.192,1.237-7.678
		s-0.413-6.04-1.237-7.662c-0.825-1.621-2.156-2.432-3.993-2.432c-1.815,0-3.138,0.8-3.968,2.399
		C35.625,35.216,35.21,37.781,35.21,41.312z"/>
	<path fill="#FFFFFF" d="M67.782,39.568c0,9.496-3.675,14.244-11.023,14.244c-1.284,0-2.302-0.11-3.055-0.332v-2.374
		c0.886,0.288,1.893,0.432,3.021,0.432c2.656,0,4.662-0.822,6.019-2.465c1.355-1.644,2.094-4.164,2.216-7.562h-0.199
		c-0.608,0.919-1.417,1.619-2.424,2.1s-2.142,0.722-3.403,0.722c-2.147,0-3.852-0.642-5.113-1.926
		c-1.262-1.284-1.893-3.077-1.893-5.379c0-2.523,0.705-4.516,2.117-5.977c1.41-1.461,3.268-2.191,5.569-2.191
		c1.649,0,3.091,0.423,4.325,1.27c1.233,0.847,2.183,2.081,2.847,3.702C67.45,35.454,67.782,37.366,67.782,39.568z M59.614,31.218
		c-1.583,0-2.806,0.509-3.669,1.527c-0.863,1.019-1.295,2.435-1.295,4.25c0,1.594,0.398,2.847,1.195,3.76s2.009,1.37,3.636,1.37
		c1.007,0,1.935-0.205,2.78-0.614c0.848-0.409,1.514-0.968,2.001-1.677c0.487-0.708,0.73-1.45,0.73-2.225
		c0-1.162-0.227-2.235-0.681-3.221c-0.454-0.985-1.088-1.76-1.9-2.324C61.598,31.5,60.666,31.218,59.614,31.218z"/>
</g>
</svg>
