<?xml version="1.0" encoding="utf-8"?>
<!-- Generator: Adobe Illustrator 16.0.0, SVG Export Plug-In . SVG Version: 6.00 Build 0)  -->
<!DOCTYPE svg PUBLIC "-//W3C//DTD SVG 1.1//EN" "http://www.w3.org/Graphics/SVG/1.1/DTD/svg11.dtd">
<svg version="1.1" id="Layer_1" xmlns="http://www.w3.org/2000/svg" xmlns:xlink="http://www.w3.org/1999/xlink" x="0px" y="0px"
	 width="100px" height="100px" viewBox="0 0 100 100" enable-background="new 0 0 100 100" xml:space="preserve">
<path fill="none" stroke="#CCCCCC" stroke-width="3" stroke-linejoin="round" stroke-miterlimit="10" d="M77.175,69.772
	c-0.929-16.647-16.498-10.094-16.498-10.094c0.786-20.192-17.473-19.833-17.473-19.833C23.306,41.06,25.021,53.662,24.749,53.417
	C15.833,45.418,4.491,55.24,3.966,63.5c-1.118,17.613,14.161,19,14.161,19h46.417C64.544,82.5,75.57,81.266,77.175,69.772z"/>
<g>
	<g>
		<g>
			<path fill="#CCCCCC" d="M90.17,29.739c-0.323-0.556-1.037-0.745-1.594-0.421l-5.691,3.29c-0.558,0.324-0.745,1.037-0.422,1.594
				c0.322,0.557,1.037,0.746,1.595,0.421l5.689-3.29C90.305,31.008,90.493,30.295,90.17,29.739z"/>
		</g>
	</g>
	<g>
		<g>
			<path fill="#CCCCCC" d="M89.747,60.185l-5.689-3.29c-0.559-0.324-1.272-0.135-1.595,0.422c-0.323,0.556-0.136,1.27,0.422,1.594
				l5.691,3.289c0.558,0.325,1.271,0.136,1.594-0.422C90.493,61.223,90.305,60.509,89.747,60.185z"/>
		</g>
	</g>
	<g>
		<g>
			<path fill="#CCCCCC" d="M41.985,32.607l-5.691-3.29c-0.557-0.323-1.27-0.135-1.593,0.421c-0.323,0.557-0.135,1.27,0.421,1.594
				l5.691,3.29c0.557,0.324,1.27,0.134,1.594-0.421C42.73,33.644,42.542,32.931,41.985,32.607z"/>
		</g>
	</g>
	<g>
		<g>
			<path fill="#CCCCCC" d="M62.524,12.004c-0.646-0.063-1.208,0.584-1.255,1.448c-0.004,0.077-0.004,0.155,0,0.231v8.793
				c0.004,0.859,0.523,1.554,1.165,1.559c0.647,0,1.172-0.701,1.172-1.567v-8.785C63.653,12.82,63.169,12.067,62.524,12.004z"/>
		</g>
	</g>
	<g>
		<g>
			<path fill="#CCCCCC" d="M51.295,24.134l-3.283-5.692c-0.324-0.556-1.037-0.745-1.594-0.421c-0.556,0.324-0.745,1.038-0.422,1.594
				l3.284,5.691c0.323,0.558,1.036,0.746,1.594,0.421C51.43,25.404,51.619,24.69,51.295,24.134z"/>
		</g>
	</g>
	<g>
		<g>
			<path fill="#CCCCCC" d="M96.702,45.665c-0.064-0.579-0.731-1.039-1.57-1.082h-9.54c-0.936-0.048-1.752,0.437-1.822,1.082
				c-0.07,0.646,0.633,1.207,1.571,1.255c0.085,0.005,0.167,0.005,0.253,0h9.539C96.069,46.873,96.771,46.312,96.702,45.665z"/>
		</g>
	</g>
	<g>
		<g>
			<path fill="#CCCCCC" d="M48.327,41.069c0.722-2.174,1.945-4.173,3.599-5.821v0.019c5.804-5.803,15.213-5.803,21.017,0
				s5.804,15.211,0,21.017c-0.788,0.787-1.643,1.468-2.545,2.041l1.319,1.912c4.763-3.057,7.919-8.398,7.92-14.478
				c0-9.499-7.699-17.2-17.196-17.202c-7.449-0.001-13.792,4.734-16.184,11.358L48.327,41.069z"/>
		</g>
	</g>
	<g>
		<g>
			<path fill="#CCCCCC" d="M78.489,18.02c-0.557-0.324-1.271-0.134-1.593,0.421l-3.29,5.691c-0.326,0.556-0.14,1.27,0.415,1.595
				c0,0.001,0.001,0.001,0.002,0.001l0,0c0.558,0.325,1.271,0.137,1.595-0.42c0-0.001,0.002-0.003,0.004-0.005l3.29-5.691
				C79.233,19.057,79.046,18.344,78.489,18.02z"/>
		</g>
	</g>
</g>
</svg>
