<?xml version="1.0" encoding="utf-8"?>
<!-- Generator: Adobe Illustrator 16.0.0, SVG Export Plug-In . SVG Version: 6.00 Build 0)  -->
<!DOCTYPE svg PUBLIC "-//W3C//DTD SVG 1.1//EN" "http://www.w3.org/Graphics/SVG/1.1/DTD/svg11.dtd">
<svg version="1.1" id="Layer_1" xmlns="http://www.w3.org/2000/svg" xmlns:xlink="http://www.w3.org/1999/xlink" x="0px" y="0px"
	 width="100px" height="100px" viewBox="0 0 100 100" enable-background="new 0 0 100 100" xml:space="preserve">
<g>
	<path fill="none" stroke="#CCCCCC" stroke-width="3" stroke-linecap="round" stroke-miterlimit="10" d="M16.375,33.5
		c0,0,4.5-9.25,18.75-8c8.312,0.729,23,10.125,34.625,10.25c11.631,0.125,16.75-8.5,16.75-8.5"/>
</g>
<g>
	<path fill="none" stroke="#CCCCCC" stroke-width="3" stroke-linecap="round" stroke-miterlimit="10" d="M16.375,43.5
		c0,0,4.5-9.25,18.75-8c8.312,0.729,23,10.125,34.625,10.25c11.631,0.125,16.75-8.5,16.75-8.5"/>
</g>
<g>
	<path fill="none" stroke="#CCCCCC" stroke-width="3" stroke-linecap="round" stroke-miterlimit="10" d="M16.375,53.5
		c0,0,4.5-9.25,18.75-8c8.312,0.729,23,10.125,34.625,10.25c11.631,0.125,16.75-8.5,16.75-8.5"/>
</g>
<g>
	<path fill="none" stroke="#CCCCCC" stroke-width="3" stroke-linecap="round" stroke-miterlimit="10" d="M16.375,63.5
		c0,0,4.5-9.25,18.75-8c8.312,0.729,23,10.125,34.625,10.25c11.631,0.125,16.75-8.5,16.75-8.5"/>
</g>
<g>
	<path fill="none" stroke="#CCCCCC" stroke-width="3" stroke-linecap="round" stroke-miterlimit="10" d="M16.375,73.5
		c0,0,4.5-9.25,18.75-8c8.312,0.729,23,10.125,34.625,10.25c11.631,0.125,16.75-8.5,16.75-8.5"/>
</g>
</svg>
