<?xml version="1.0" encoding="utf-8"?>
<!-- Generator: Adobe Illustrator 16.0.0, SVG Export Plug-In . SVG Version: 6.00 Build 0)  -->
<!DOCTYPE svg PUBLIC "-//W3C//DTD SVG 1.1//EN" "http://www.w3.org/Graphics/SVG/1.1/DTD/svg11.dtd">
<svg version="1.1" id="Layer_1" xmlns="http://www.w3.org/2000/svg" xmlns:xlink="http://www.w3.org/1999/xlink" x="0px" y="0px"
	 width="100px" height="100px" viewBox="0 0 100 100" enable-background="new 0 0 100 100" xml:space="preserve">
<g>
	<g>
		<path fill="#CCCCCC" d="M27.382,96.684c-0.145,0-0.291-0.023-0.435-0.068c-0.748-0.239-1.157-1.04-0.918-1.788l2.608-8.112
			c0.243-0.746,1.046-1.155,1.788-0.917c0.747,0.238,1.16,1.039,0.918,1.787l-2.608,8.116C28.541,96.3,27.981,96.684,27.382,96.684z
			 M32.601,80.452c-0.145,0-0.289-0.023-0.434-0.068c-0.748-0.237-1.159-1.04-0.918-1.787l2.609-8.116
			c0.241-0.747,1.04-1.15,1.787-0.918c0.748,0.24,1.156,1.041,0.918,1.788l-2.608,8.115C33.76,80.069,33.205,80.452,32.601,80.452z"
			/>
	</g>
	<g>
		<path fill="#CCCCCC" d="M55.797,96.684c-0.145,0-0.289-0.023-0.435-0.068c-0.747-0.239-1.156-1.04-0.917-1.788l2.606-8.112
			c0.243-0.746,1.048-1.155,1.788-0.917c0.748,0.238,1.16,1.039,0.919,1.787l-2.608,8.116C56.956,96.3,56.396,96.684,55.797,96.684z
			 M61.018,80.452c-0.146,0-0.291-0.023-0.436-0.068c-0.748-0.237-1.158-1.04-0.918-1.787l2.609-8.116
			c0.241-0.747,1.041-1.15,1.787-0.918c0.747,0.24,1.158,1.041,0.917,1.788l-2.606,8.115C62.177,80.069,61.62,80.452,61.018,80.452z
			"/>
	</g>
	<g>
		<path fill="#CCCCCC" d="M41.59,96.684c-0.145,0-0.29-0.023-0.435-0.068c-0.749-0.239-1.157-1.04-0.919-1.788l2.609-8.112
			c0.242-0.746,1.045-1.155,1.787-0.917c0.748,0.238,1.16,1.039,0.918,1.787l-2.608,8.116C42.749,96.3,42.189,96.684,41.59,96.684z
			 M46.809,80.452c-0.144,0-0.289-0.023-0.434-0.068c-0.749-0.237-1.159-1.04-0.917-1.787l2.608-8.116
			c0.241-0.747,1.04-1.15,1.787-0.918c0.747,0.24,1.155,1.041,0.919,1.788l-2.608,8.115C47.969,80.069,47.412,80.452,46.809,80.452z
			"/>
	</g>
</g>
<g>
	<path fill="#CCCCCC" stroke="#CCCCCC" stroke-width="3" stroke-linejoin="round" stroke-miterlimit="10" d="M96.812,37.267
		C95.783,18.77,78.479,26.051,78.479,26.051c0.873-22.439-19.414-22.04-19.414-22.04C36.954,5.36,38.859,19.363,38.556,19.093
		c-9.908-8.89-22.511,2.025-23.095,11.204C14.22,49.871,31.198,51.412,31.198,51.412h51.578
		C82.776,51.412,95.031,50.039,96.812,37.267z"/>
</g>
<g>
	<path fill="#FFFFFF" stroke="#CCCCCC" stroke-width="3" stroke-linejoin="round" stroke-miterlimit="10" d="M91.663,54.393
		c-1.13-20.297-20.114-12.306-20.114-12.306c0.958-24.62-21.302-24.182-21.302-24.182c-24.262,1.479-22.171,16.844-22.503,16.546
		c-10.871-9.753-24.7,2.223-25.34,12.294C1.041,68.221,19.67,69.912,19.67,69.912h56.593C76.263,69.912,89.709,68.404,91.663,54.393
		z"/>
</g>
</svg>
