<?xml version="1.0" encoding="utf-8"?>
<!-- Generator: Adobe Illustrator 16.0.0, SVG Export Plug-In . SVG Version: 6.00 Build 0)  -->
<!DOCTYPE svg PUBLIC "-//W3C//DTD SVG 1.1//EN" "http://www.w3.org/Graphics/SVG/1.1/DTD/svg11.dtd">
<svg version="1.1" id="Layer_1" xmlns="http://www.w3.org/2000/svg" xmlns:xlink="http://www.w3.org/1999/xlink" x="0px" y="0px"
	 width="100px" height="100px" viewBox="0 0 100 100" enable-background="new 0 0 100 100" xml:space="preserve">
<g>
	
		<path fill="#FFFFFF" stroke="#CCCCCC" stroke-width="3" stroke-linecap="round" stroke-linejoin="round" stroke-miterlimit="10" d="
		M57.917,56.285h21.528c0,0,12.782-1.434,14.64-14.754c-1.073-19.294-19.12-11.698-19.12-11.698
		c0.91-23.404-20.25-22.988-20.25-22.988C31.651,8.251,33.639,22.858,33.323,22.575c-10.334-9.271-23.48,2.113-24.089,11.687
		C7.939,54.677,25.647,56.285,25.647,56.285"/>
</g>
<path fill="#CCCCCC" d="M50.715,69.877l3.908-1.197l-0.644-4.037l-4.75-0.449l-0.285-0.178l3.008-0.696l-0.432-1.854l-4.86,1.127
	l-1.123-0.701l0.112-3.295l1.168-0.622l4.772,1.456l0.555-1.822l-2.952-0.899l0.326-0.174l4.886-0.127l1.261-4.142l-4.142-1.262
	l-2.634,3.71l-0.591,0.314l0.899-2.952l-1.822-0.555l-1.455,4.773l-1.166,0.621l-2.798-1.743l0.044-1.323l3.646-3.406l-1.3-1.391
	l-2.254,2.107l0.018-0.53l2.229-4.104l-2.957-3.165l-3.164,2.957l1.985,4.332l-0.016,0.446l-2.106-2.254l-1.391,1.3l3.407,3.646
	l-0.045,1.321l-2.908,1.55l-1.124-0.7L34.895,51.1l-1.854,0.429l0.698,3.007l-0.28-0.176l-2.493-4.067l-3.909,1.198l0.645,4.038
	l4.75,0.447l0.281,0.174l-3.006,0.697l0.43,1.855l4.861-1.128l1.123,0.7l-0.113,3.295l-1.167,0.623l-4.774-1.453l-0.554,1.82
	l2.953,0.899l-0.408,0.216L27.298,63.8l-1.262,4.142l4.142,1.263l2.696-3.797l0.504-0.27l-0.899,2.952l1.82,0.556l1.454-4.773
	l1.168-0.621l2.797,1.743l-0.044,1.322l-3.647,3.406l1.3,1.391l2.255-2.106l-0.021,0.626l-2.201,4.05l2.957,3.164l3.164-2.956
	l-2.011-4.388l0.014-0.432l2.108,2.255l1.39-1.299l-3.406-3.647l0.045-1.32l2.909-1.552l1.123,0.7l1.127,4.86l1.855-0.43
	l-0.697-3.006l0.284,0.177L50.715,69.877z M52.329,66.398l0.148,0.943l-0.912,0.281l-0.844-1.376L52.329,66.398z M43.635,61.829
	l-2.91,1.55l-2.797-1.744l0.111-3.295l2.91-1.551l2.798,1.744L43.635,61.829z M52.28,53.226l1.01,0.309l-0.308,1.007l-1.666,0.044
	L52.28,53.226z M40.522,46.772l0.771-0.719l0.72,0.77l-0.795,1.465L40.522,46.772z M29.35,53.771l-0.149-0.943l0.913-0.28
	l0.843,1.376L29.35,53.771z M29.42,66.982l-1.008-0.307l0.307-1.009l1.666-0.044L29.42,66.982z M41.179,73.436l-0.771,0.719
	l-0.72-0.769l0.796-1.466L41.179,73.436z"/>
<path fill="#CCCCCC" d="M77.09,81.108l2.029-2.333l-2.029-2.334l-3.228,1.614h-0.255l1.651-1.651l-1.018-1.017l-2.668,2.668h-1.002
	l-1.246-2.159l0.501-0.866l3.645-0.977l-0.372-1.392l-2.255,0.604l0.14-0.242l3.085-2.035l-0.849-3.164l-3.162,0.849l-0.207,3.435
	l-0.254,0.438l-0.604-2.255l-1.391,0.373l0.977,3.645l-0.5,0.867h-2.493l-0.501-0.867l0.977-3.645l-1.391-0.373l-0.603,2.255
	L63.866,72.2l-0.212-3.526l-3.162-0.849l-0.849,3.164l3.009,1.985l0.167,0.293l-2.254-0.605l-0.372,1.392l3.645,0.977l0.5,0.866
	l-1.245,2.159h-1.002l-2.668-2.668l-1.018,1.017l1.65,1.651h-0.25l-3.229-1.614l-2.028,2.334l2.03,2.333l3.227-1.614h0.25
	l-1.65,1.652l1.018,1.018l2.668-2.67h1.002l1.245,2.16l-0.5,0.866l-3.645,0.979l0.372,1.391l2.254-0.604l-0.173,0.302l-3.016,1.992
	l0.847,3.162l3.163-0.848l0.211-3.517l0.217-0.373l0.604,2.255l1.392-0.373l-0.979-3.646l0.501-0.866h2.493l0.501,0.866
	l-0.978,3.646l1.391,0.373l0.604-2.255l0.237,0.41l0.208,3.479l3.163,0.848l0.849-3.162l-3.046-2.014l-0.164-0.28L73.1,84.89
	l0.371-1.391l-3.645-0.979l-0.501-0.866l1.246-2.16h1.002l2.668,2.67l1.02-1.018l-1.65-1.652h0.252L77.09,81.108z M76.735,78.229
	l0.472,0.546l-0.472,0.545l-1.093-0.545L76.735,78.229z M69.325,78.775l-1.246,2.159h-2.493l-1.246-2.159l1.246-2.16h2.493
	L69.325,78.775z M71.431,69.795l0.771-0.206l0.206,0.77l-1.051,0.695L71.431,69.795z M61.304,70.358l0.206-0.77l0.771,0.206
	l0.076,1.259L61.304,70.358z M56.935,79.32l-0.473-0.545l0.473-0.546l1.093,0.546L56.935,79.32z M62.266,87.771l-0.771,0.206
	l-0.206-0.77l1.053-0.695L62.266,87.771z M72.394,87.208l-0.206,0.77l-0.77-0.206l-0.077-1.259L72.394,87.208z"/>
</svg>
