<?xml version="1.0" encoding="utf-8"?>
<!-- Generator: Adobe Illustrator 16.0.0, SVG Export Plug-In . SVG Version: 6.00 Build 0)  -->
<!DOCTYPE svg PUBLIC "-//W3C//DTD SVG 1.1//EN" "http://www.w3.org/Graphics/SVG/1.1/DTD/svg11.dtd">
<svg version="1.1" id="Layer_1" xmlns="http://www.w3.org/2000/svg" xmlns:xlink="http://www.w3.org/1999/xlink" x="0px" y="0px"
	 width="100px" height="100px" viewBox="0 0 100 100" enable-background="new 0 0 100 100" xml:space="preserve">
<g>
	<g>
		<path fill="#CCCCCC" d="M88.261,27.993c-0.448-0.77-1.435-1.031-2.205-0.583l-7.876,4.553c-0.77,0.447-1.031,1.434-0.583,2.205
			c0.447,0.77,1.436,1.031,2.206,0.583l7.874-4.553C88.447,29.75,88.708,28.763,88.261,27.993z"/>
	</g>
</g>
<g>
	<g>
		<path fill="#CCCCCC" d="M87.677,70.121l-7.874-4.553c-0.771-0.448-1.759-0.186-2.206,0.583c-0.448,0.771-0.187,1.758,0.583,2.205
			l7.876,4.554c0.771,0.448,1.757,0.186,2.205-0.584C88.708,71.556,88.447,70.568,87.677,70.121z"/>
	</g>
</g>
<g>
	<g>
		<path fill="#CCCCCC" d="M50.009,80.463c-0.894-0.09-1.671,0.801-1.737,1.983c-0.006,0.104-0.006,0.21,0,0.316v12.05
			c-0.066,1.183,0.604,2.213,1.497,2.299c0.893,0.09,1.671-0.8,1.738-1.981c0.006-0.105,0.006-0.21,0-0.317v-12.05
			C51.571,81.58,50.901,80.551,50.009,80.463z"/>
	</g>
</g>
<g>
	<g>
		<path fill="#CCCCCC" d="M21.588,31.963l-7.875-4.553c-0.771-0.447-1.758-0.187-2.205,0.583c-0.448,0.77-0.187,1.757,0.583,2.205
			l7.875,4.553c0.77,0.448,1.757,0.186,2.205-0.583C22.619,33.397,22.358,32.41,21.588,31.963z"/>
	</g>
</g>
<g>
	<g>
		<path fill="#CCCCCC" d="M50.009,3.454c-0.894-0.088-1.671,0.808-1.737,2.003c-0.006,0.107-0.006,0.214,0,0.32v12.168
			c0.005,1.189,0.724,2.15,1.612,2.157c0.896,0,1.622-0.97,1.622-2.169V5.777C51.571,4.583,50.901,3.542,50.009,3.454z"/>
	</g>
</g>
<g>
	<g>
		<path fill="#CCCCCC" d="M34.47,20.238l-4.543-7.876c-0.448-0.77-1.435-1.031-2.205-0.583c-0.77,0.448-1.031,1.436-0.584,2.205
			l4.544,7.875c0.447,0.771,1.434,1.032,2.205,0.583C34.657,21.995,34.918,21.008,34.47,20.238z"/>
	</g>
</g>
<g>
	<g>
		<path fill="#CCCCCC" d="M97.3,50.03c-0.088-0.8-1.012-1.437-2.173-1.497h-13.2c-1.295-0.066-2.424,0.604-2.521,1.497
			c-0.098,0.895,0.875,1.671,2.174,1.737c0.117,0.006,0.23,0.006,0.348,0h13.2C96.424,51.702,97.394,50.925,97.3,50.03z"/>
	</g>
</g>
<g>
	<g>
		<path fill="#CCCCCC" d="M17.703,48.542c-0.108-0.006-0.216-0.006-0.324,0H5.096c-1.206,0.066-2.11,0.844-2.021,1.738
			c0.08,0.8,0.94,1.438,2.021,1.497h12.282c1.206,0.065,2.256-0.605,2.346-1.497C19.814,49.386,18.908,48.608,17.703,48.542z"/>
	</g>
</g>
<g>
	<g>
		<path fill="#CCCCCC" d="M49.891,26.358c-13.143-0.002-23.798,10.651-23.8,23.793c0,6.314,2.507,12.37,6.973,16.833
			c4.457,4.469,10.51,6.976,16.821,6.967c13.142,0.002,23.799-10.65,23.801-23.792C73.686,37.016,63.033,26.36,49.891,26.358z
			 M64.424,64.723c-8.031,8.029-21.05,8.029-29.081,0c-3.862-3.863-6.03-9.104-6.022-14.567c-0.008-5.456,2.16-10.688,6.022-14.54
			v0.026c8.031-8.03,21.049-8.03,29.081,0C72.454,43.672,72.454,56.691,64.424,64.723z"/>
	</g>
</g>
<g>
	<g>
		<path fill="#CCCCCC" d="M72.634,86.334c-0.002-0.002-0.004-0.005-0.005-0.007l-4.553-7.875c-0.447-0.771-1.435-1.032-2.204-0.584
			c-0.771,0.447-1.031,1.435-0.583,2.206l4.551,7.874c0.446,0.769,1.432,1.033,2.201,0.589
			C72.813,88.092,73.078,87.106,72.634,86.334z"/>
	</g>
</g>
<g>
	<g>
		<path fill="#CCCCCC" d="M72.099,11.778c-0.769-0.448-1.757-0.186-2.204,0.583l-4.553,7.876c-0.451,0.769-0.194,1.756,0.575,2.207
			c0.001,0.001,0.002,0.002,0.003,0.002l0,0c0.771,0.449,1.758,0.189,2.206-0.581c0.001-0.002,0.003-0.005,0.005-0.007l4.552-7.875
			C73.13,13.213,72.87,12.227,72.099,11.778z"/>
	</g>
</g>
<g>
	<g>
		<path fill="#CCCCCC" d="M33.896,77.868c-0.77-0.448-1.757-0.188-2.205,0.584l-4.553,7.875c-0.447,0.771-0.186,1.757,0.584,2.205
			c0.77,0.447,1.757,0.187,2.205-0.584l4.553-7.874C34.928,79.303,34.666,78.315,33.896,77.868z"/>
	</g>
</g>
<g>
	<g>
		<path fill="#CCCCCC" d="M22.171,66.143c-0.448-0.77-1.435-1.031-2.205-0.583l-7.875,4.553c-0.77,0.447-1.031,1.435-0.583,2.205
			c0.447,0.77,1.435,1.031,2.205,0.583l7.875-4.553C22.358,67.899,22.619,66.913,22.171,66.143z"/>
	</g>
</g>
</svg>
