<?xml version="1.0" encoding="utf-8"?>
<!-- Generator: Adobe Illustrator 16.0.0, SVG Export Plug-In . SVG Version: 6.00 Build 0)  -->
<!DOCTYPE svg PUBLIC "-//W3C//DTD SVG 1.1//EN" "http://www.w3.org/Graphics/SVG/1.1/DTD/svg11.dtd">
<svg version="1.1" id="Layer_1" xmlns="http://www.w3.org/2000/svg" xmlns:xlink="http://www.w3.org/1999/xlink" x="0px" y="0px"
	 width="100px" height="100px" viewBox="0 0 100 100" enable-background="new 0 0 100 100" xml:space="preserve">
<g>
	<path fill="#CCCCCC" stroke="#CCCCCC" stroke-width="3" stroke-linejoin="round" stroke-miterlimit="10" d="M94.479,36.252
		C93.501,18.668,77.052,25.59,77.052,25.59C77.882,4.259,58.597,4.639,58.597,4.639C37.577,5.921,39.388,19.232,39.1,18.976
		c-9.419-8.451-21.399,1.925-21.955,10.651c-1.179,18.606,14.96,20.072,14.96,20.072h49.031
		C81.137,49.698,92.786,48.393,94.479,36.252z"/>
</g>
<g>
	<path fill="#FFFFFF" stroke="#CCCCCC" stroke-width="3" stroke-linejoin="round" stroke-miterlimit="10" d="M89.751,51.031
		c-1.073-19.294-19.12-11.698-19.12-11.698c0.91-23.404-20.25-22.988-20.25-22.988c-23.064,1.406-21.076,16.012-21.392,15.729
		C18.655,22.803,5.509,34.188,4.9,43.761C3.605,64.177,21.313,65.785,21.313,65.785h53.798
		C75.111,65.785,87.894,64.352,89.751,51.031z"/>
</g>
<g>
	<polygon fill="#FFFFFF" stroke="#CCCCCC" stroke-width="2" stroke-miterlimit="10" points="34,58 45,58 36.982,71.051 
		45.667,70.166 24.968,94.521 32.333,75.959 24.713,77.184 	"/>
</g>
<g>
	<polygon fill="#FFFFFF" stroke="#CCCCCC" stroke-width="2" stroke-miterlimit="10" points="57.858,62 66.321,62 60.152,72.041 
		66.834,71.36 50.91,90.098 56.576,75.816 50.713,76.759 	"/>
</g>
</svg>
